<svg width="202.6" height="70.2" viewBox="0 0 202.6 70.2" xmlns="http://www.w3.org/2000/svg"><g id="svgGroup" stroke-linecap="round" fill-rule="evenodd" font-size="9pt" stroke="#C0C0C0" stroke-width="0.25mm" fill="#C0C0C0" style="stroke:#C0C0C0;stroke-width:0.25mm;fill:#C0C0C0"><path d="M 12.7 70.1 L 0 70.1 L 0 0.1 L 16 0.1 L 21.8 36.1 L 27.5 0.1 L 43.8 0.1 L 43.8 70.2 L 30.8 70.2 L 30.8 36.4 L 25.1 70.1 L 18.4 70.1 L 12.7 36.7 L 12.7 70.1 Z" id="0" vector-effect="non-scaling-stroke"/><path d="M 55.2 0.1 L 72 0.1 L 82.6 70.1 L 69.9 70.1 L 68.5 59.3 L 58.7 59.3 L 57.2 70.1 L 44.7 70.1 L 55.2 0.1 Z M 60.2 48.1 L 67.2 48.1 L 63.6 18.7 L 60.2 48.1 Z" id="1" vector-effect="non-scaling-stroke"/><path d="M 83.1 0.1 L 97.4 0.1 Q 100.9 0.1 104.05 1.2 Q 107.2 2.3 109.7 4.65 A 16.835 16.835 0 0 1 112.462 8.065 A 21.926 21.926 0 0 1 113.85 10.7 A 23.087 23.087 0 0 1 115.135 14.486 Q 115.583 16.269 115.846 18.31 A 41.374 41.374 0 0 1 116 19.7 A 50.136 50.136 0 0 1 116.226 22.516 Q 116.463 27.171 115.653 30.539 A 18.981 18.981 0 0 1 115.65 30.55 Q 114.6 34.9 113.1 37.5 A 17.405 17.405 0 0 1 111.356 40.187 A 12.965 12.965 0 0 1 109 42.5 L 117.3 70.1 L 104.5 70.1 L 98.4 46.6 L 95.6 47.1 L 95.6 70.1 L 83 70.1 L 83.1 0.1 Z M 95.6 12.3 L 95.6 34.7 A 10.833 10.833 0 0 0 97.306 34.422 Q 98.236 34.187 98.989 33.788 A 6.139 6.139 0 0 0 99.4 33.55 Q 100.9 32.6 101.9 31.1 Q 102.9 29.6 103.3 27.7 Q 103.7 25.8 103.7 23.8 Q 103.7 21.7 103.3 19.65 A 13.528 13.528 0 0 0 102.56 17.132 A 11.618 11.618 0 0 0 102 15.95 Q 101.1 14.3 99.55 13.3 Q 98.139 12.389 96.022 12.308 A 10.988 10.988 0 0 0 95.6 12.3 Z" id="2" vector-effect="non-scaling-stroke"/><path d="M 113.9 0.1 L 126.9 0.1 L 132.5 42.3 L 138.4 0.1 L 151 0.1 L 139.9 70.1 L 125.1 70.1 L 113.9 0.1 Z" id="3" vector-effect="non-scaling-stroke"/><path d="M 175.5 70.1 L 151.8 70.1 L 151.8 0.1 L 175.3 0.1 L 175.3 12.5 L 164.7 12.5 L 164.7 28.3 L 175.4 28.3 L 175.4 41.3 L 164.1 41.3 L 164.1 57.1 L 175.5 57.1 L 175.5 70.1 Z" id="4" vector-effect="non-scaling-stroke"/><path d="M 179.4 0.1 L 191.8 0 L 191.8 57.5 L 202.6 57.5 L 202.6 70.2 L 179.4 70.2 L 179.4 0.1 Z" id="5" vector-effect="non-scaling-stroke"/></g></svg>